<svg id="Group_30" data-name="Group 30" xmlns="http://www.w3.org/2000/svg" xmlns:xlink="http://www.w3.org/1999/xlink" width="51.66" height="67.412" viewBox="0 0 51.66 67.412">
  <defs>
    <clipPath id="clip-path">
      <rect id="Rectangle_26" data-name="Rectangle 26" width="51.66" height="67.412" fill="#fff"/>
    </clipPath>
  </defs>
  <g id="Group_29" data-name="Group 29" transform="translate(0 0)" clip-path="url(#clip-path)">
    <path id="Path_25" data-name="Path 25" d="M30.844,17.41c0-1.589-3.29-3.367-7.69-3.367s-7.69,1.778-7.69,3.367,3.289,3.369,7.69,3.369,7.69-1.778,7.69-3.369m2.589,0c0,1.754-1.184,3.332-3.331,4.447a15.406,15.406,0,0,1-6.949,1.511,15.463,15.463,0,0,1-6.883-1.478,80.484,80.484,0,0,0,1.737,7.931l-.08.032h.124c0,.879,2.176,2.209,5.456,2.209s5.455-1.33,5.455-2.209h2.589c0,2.735-3.459,4.8-8.044,4.8-4.05,0-7.219-1.608-7.905-3.867-.742-1.854-2.371-11.077-2.6-12.39a3.843,3.843,0,0,1-.127-.982c0-1.752,1.182-3.331,3.329-4.446a15.407,15.407,0,0,1,6.95-1.511A15.4,15.4,0,0,1,30.1,12.964c2.147,1.115,3.331,2.693,3.331,4.446M46.105,23a23,23,0,1,0-23,23,23.026,23.026,0,0,0,23-23" transform="translate(-0.044 0)" fill="#fff"/>
    <path id="Path_26" data-name="Path 26" d="M46.275,96.873H44.761v.943h-.026A2.159,2.159,0,0,0,42.7,96.687a3.17,3.17,0,0,0-3.108,3.439c0,1.965.9,3.611,3.08,3.611a2.351,2.351,0,0,0,2.059-1.209h.026v1.05A1.553,1.553,0,0,1,43,105.331c-.77,0-1.461-.146-1.647-1.009H39.836c.132,1.606,1.686,2.137,3.067,2.137,2.164,0,3.372-1.022,3.372-3.08Zm-3.359,5.67c-1.261,0-1.806-1.143-1.806-2.271s.465-2.39,1.806-2.39c1.315,0,1.845,1.089,1.845,2.271s-.5,2.391-1.845,2.391m-10.609,1.195H33.82v-4.05a1.674,1.674,0,0,1,1.659-1.806c.891,0,1.314.465,1.341,1.541v4.315h1.514V99.024a2.171,2.171,0,0,0-2.43-2.337,2.459,2.459,0,0,0-2.138,1.222l-.026-.027V96.873H32.307Zm-3.16-8.047h1.514V94.256H29.147Zm0,8.047h1.514V96.872H29.147Zm-4.714,0h1.513v-3.266c0-1.514.824-2.351,1.859-2.351a5.457,5.457,0,0,1,.651.067V96.727a3.579,3.579,0,0,0-.571-.04A2.216,2.216,0,0,0,25.88,98.2h-.026V96.873H24.433Zm-8.073,2.537h1.513v-3.426H17.9a2.673,2.673,0,0,0,2.3,1.075c2.031,0,2.961-1.74,2.961-3.585,0-2.005-1.048-3.652-3.213-3.652A2.292,2.292,0,0,0,17.82,97.8h-.026v-.929H16.36Zm5.285-5.963c0,1.2-.517,2.417-1.9,2.417-1.221,0-1.925-1.036-1.925-2.417,0-1.461.651-2.43,1.925-2.43,1.248,0,1.9,1.182,1.9,2.43m-14.289.265c.04,2.351,1.793,3.386,3.957,3.386,1.886,0,3.772-.85,3.772-2.974a2.51,2.51,0,0,0-1.847-2.417c-.491-.146-2.589-.691-2.734-.73-.678-.187-1.129-.558-1.129-1.222,0-.956.969-1.234,1.739-1.234,1.142,0,1.965.451,2.045,1.673h1.66c0-1.979-1.66-3.028-3.639-3.028-1.713,0-3.466.89-3.466,2.789a2.407,2.407,0,0,0,2.1,2.4c1.3.358,2.164.532,2.827.784a1.126,1.126,0,0,1,.784,1.168c0,.717-.544,1.434-2,1.434-1.328,0-2.4-.571-2.4-2.032ZM1.514,99.7a1.794,1.794,0,0,1,1.806-1.82A1.8,1.8,0,0,1,5.046,99.7Zm5.046,1a3.386,3.386,0,0,0-3.24-4.01A3.38,3.38,0,0,0,0,100.312c0,2.111,1.208,3.612,3.36,3.612a3.006,3.006,0,0,0,3.107-2.337H5.033a1.593,1.593,0,0,1-1.674,1.142A1.826,1.826,0,0,1,1.514,100.7Z" transform="translate(0 -39.048)" fill="#fff"/>
    <path id="Path_27" data-name="Path 27" d="M82.7,98.121H81.045v.394h.577v1.637h.5V98.515H82.7Zm2.613,0h-.665l-.508,1.336-.509-1.336h-.67v2.031h.473v-1.44h.01l.523,1.44h.34l.523-1.44h.01v1.44h.473Z" transform="translate(-33.655 -40.746)" fill="#fff"/>
  </g>
</svg>
